<?xml version="1.0" encoding="UTF-8" standalone="no"?>
<!-- Created with Inkscape (http://www.inkscape.org/) -->

<svg
   xmlns:svg="http://www.w3.org/2000/svg"
   xmlns="http://www.w3.org/2000/svg"
   version="1.1"
   width="54"
   height="152"
   id="panzoomcontrol">
  <defs
     id="defs2940" />
  <rect
     width="4.900291"
     height="65.400291"
     x="24.549854"
     y="70.709175"
     id="rect4152"
     style="fill:#ffffff;fill-opacity:1;stroke:#000000;stroke-width:1.09970903;stroke-linejoin:round;stroke-miterlimit:4;stroke-dasharray:none" />
  <g
     transform="matrix(1.6415391,0,0,1,132.20279,34.45665)"
     id="zoom_slider"
     style="fill:#87cefa;fill-opacity:1">
    <path
       d="m -69.650018,91.54237 11.12424,0 0,6.174492 -11.12424,10e-7 0,-6.174493 z"
       id="path4627"
       style="fill:#87cefa;fill-opacity:1;stroke:#000000;stroke-width:1px;stroke-linecap:butt;stroke-linejoin:miter;stroke-opacity:1" />
  </g>
  <g
     transform="translate(-13.000003,-900.95281)"
     id="zoom_minus">
    <rect
       width="15.379573"
       height="15.379573"
       x="32.310207"
       y="1034.5543"
       id="rect4140"
       style="fill:#ffffff;fill-opacity:1;stroke:#000000;stroke-width:1;stroke-linejoin:round;stroke-miterlimit:4;stroke-dasharray:none" />
    <path
       d="m 35.87499,1042.2441 c 8.25,0 8.25,0 8.25,0"
       id="path4134"
       style="fill:none;stroke:#000000;stroke-width:2;stroke-linecap:butt;stroke-linejoin:miter;stroke-miterlimit:4;stroke-opacity:1;stroke-dasharray:none" />
  </g>
  <g
     transform="translate(-13.000003,-900.95281)"
     id="zoom_plus">
    <rect
       width="15.379573"
       height="15.379573"
       x="32.310211"
       y="960.17236"
       id="rect2874"
       style="fill:#ffffff;fill-opacity:1;stroke:#000000;stroke-width:1;stroke-linejoin:round;stroke-miterlimit:4;stroke-dasharray:none" />
    <g
       transform="translate(-90.625,7.25)"
       id="g4136"
       style="stroke-width:2;stroke-miterlimit:4;stroke-dasharray:none">
      <path
         d="m 126.5,960.61215 c 8.25,0 8.25,0 8.25,0"
         id="path4124"
         style="fill:none;stroke:#000000;stroke-width:2;stroke-linecap:butt;stroke-linejoin:miter;stroke-miterlimit:4;stroke-opacity:1;stroke-dasharray:none" />
      <path
         d="m 130.625,956.48715 c 0,8.25 0,8.25 0,8.25"
         id="path4126"
         style="fill:none;stroke:#000000;stroke-width:2;stroke-linecap:butt;stroke-linejoin:miter;stroke-miterlimit:4;stroke-opacity:1;stroke-dasharray:none" />
    </g>
  </g>
  <g
     transform="translate(84.913319,-909.91296)"
     id="pan_up">
    <rect
       width="15.379573"
       height="15.379573"
       x="-65.603104"
       y="912.93188"
       id="rect4536"
       style="fill:#ffffff;fill-opacity:1;stroke:#000000;stroke-width:1;stroke-linejoin:round;stroke-miterlimit:4;stroke-dasharray:none" />
    <path
       d="m -62.550445,924.50143 3.842189,-7.75954 1.987339,0 3.44472,7.75954 -2.119828,0 -2.318562,-5.43168 -2.848519,5.43168 -1.987339,0 z"
       id="path4538"
       style="fill:#000000;stroke:#000000;stroke-width:0.74046993px;stroke-linecap:butt;stroke-linejoin:miter;stroke-opacity:1" />
  </g>
  <g
     transform="translate(-29.991458,-948.11962)"
     id="pan_left">
    <rect
       width="15.379573"
       height="15.379573"
       x="-984.05194"
       y="32.310215"
       transform="matrix(0,-1,1,0,0,0)"
       id="rect2844"
       style="fill:#ffffff;fill-opacity:1;stroke:#000000;stroke-width:1;stroke-linejoin:round;stroke-miterlimit:4;stroke-dasharray:none" />
    <path
       d="m 43.87977,980.99927 -7.75954,-3.84218 0,-1.98734 7.75954,-3.44472 0,2.11983 -5.43168,2.31856 5.43168,2.84852 0,1.98733 z"
       id="path4526"
       style="fill:#000000;stroke:#000000;stroke-width:0.74046993px;stroke-linecap:butt;stroke-linejoin:miter;stroke-opacity:1" />
  </g>
  <g
     transform="matrix(0,1,-1,0,964.61313,86.15582)"
     id="pan_right">
    <rect
       width="15.379573"
       height="15.379573"
       x="-65.603104"
       y="912.93188"
       id="rect4548"
       style="fill:#ffffff;fill-opacity:1;stroke:#000000;stroke-width:1;stroke-linejoin:round;stroke-miterlimit:4;stroke-dasharray:none" />
    <path
       d="m -62.550445,924.50143 3.842189,-7.75954 1.987339,0 3.44472,7.75954 -2.119828,0 -2.318562,-5.43168 -2.848519,5.43168 -1.987339,0 z"
       id="path4550"
       style="fill:#000000;stroke:#000000;stroke-width:0.74046993px;stroke-linecap:butt;stroke-linejoin:miter;stroke-opacity:1" />
  </g>
  <g
     transform="matrix(1,0,0,-1,84.913319,966.39799)"
     id="pan_down">
    <rect
       width="15.379573"
       height="15.379573"
       x="-65.603104"
       y="912.93188"
       id="rect4554"
       style="fill:#ffffff;fill-opacity:1;stroke:#000000;stroke-width:1;stroke-linejoin:round;stroke-miterlimit:4;stroke-dasharray:none" />
    <path
       d="m -62.550445,924.50143 3.842189,-7.75954 1.987339,0 3.44472,7.75954 -2.119828,0 -2.318562,-5.43168 -2.848519,5.43168 -1.987339,0 z"
       id="path4556"
       style="fill:#000000;stroke:#000000;stroke-width:0.74046993px;stroke-linecap:butt;stroke-linejoin:miter;stroke-opacity:1" />
  </g>
  <g
     id="zoom_to_fit">
    <rect
       width="15.379573"
       height="15.379573"
       x="20.552717"
       y="-34.689785"
       transform="matrix(0,1,-1,0,0,0)"
       id="rect3132"
       style="fill:#ffffff;fill-opacity:1;stroke:#000000;stroke-width:1;stroke-linejoin:round;stroke-miterlimit:4;stroke-dasharray:none" />
    <path
       d="m 31.217453,28.330858 a 4.3224168,4.0822825 0 1 1 -8.644833,0 4.3224168,4.0822825 0 1 1 8.644833,0 z"
       id="path3910"
       style="fill:none;stroke:#010000;stroke-width:2.66000009;stroke-linejoin:round;stroke-miterlimit:4;stroke-opacity:1;stroke-dasharray:none" />
  </g>
</svg>
